#N canvas 965 30 938 1001 10;
#X declare -lib neimog;
#X obj 170 6 declare -lib neimog;
#X obj 5 58 l.readsvg;
#X msg 23 27 play;
#X msg 58 27 reload;
#X obj 5 80 l.attrfilter fill #ff0000;
#X msg 5 6 read plaits-score.svg;
#X obj 5 119 list prepend next;
#X obj 5 141 list trim;
#X obj 5 171 clone plaits 20;
#X obj 5 218 dac~;
#X text 162 80 Filtramos somente os objetos vermelhos;
#N canvas 0 50 450 250 (subpatch) 0;
#X coords 0 1 100 -1 119 52 1;
#X restore 3 111 graph;
#X text 127 107 Com esses dois objetos mandamos cada desenho para uma cópia diferente do plaits (temos 20)., f 37;
#X text 103 169 Com o clone \, clonamos o patch plaits 20 vezes.;
#X connect 1 0 4 0;
#X connect 2 0 1 0;
#X connect 3 0 1 0;
#X connect 4 0 6 0;
#X connect 5 0 1 0;
#X connect 6 0 7 0;
#X connect 7 0 8 0;
#X connect 8 0 9 0;
#X connect 8 0 9 1;
