#N canvas 0 0 925 1132 10;
#X declare -lib xlab;
#X obj 6 162 src/l.readsvg;
#X msg 159 113 reload;
#X obj 6 84 t b b, f 26;
#X obj 44 52 bng 18 250 50 0 empty empty empty 0 -9 0 10 #fcfcfc #000000 #000000;
#X obj 245 81 key;
#X obj 245 103 sel 32;
#X msg 245 125 play;
#X obj 4 6 declare -lib xlab;
#X msg 6 113 read resources/score.svg;
#X obj 6 184 src/l.playchilds;
#X obj 6 206 t a a, f 31;
#X obj 6 228 src/l.attrfilter fill #00ffff;
#X obj 189 228 src/l.attrfilter name path;
#X obj 189 250 src/l.attrfilter stroke #ffffff;
#X obj 189 272 src/l.playpath;
#X obj 189 294 print;
#X connect 0 0 9 0;
#X connect 1 0 0 0;
#X connect 2 0 8 0;
#X connect 2 1 1 0;
#X connect 3 0 2 0;
#X connect 4 0 5 0;
#X connect 5 0 6 0;
#X connect 6 0 0 0;
#X connect 8 0 0 0;
#X connect 9 0 10 0;
#X connect 10 0 11 0;
#X connect 10 1 12 0;
#X connect 12 0 13 0;
#X connect 13 0 14 0;
#X connect 14 0 15 0;
