#N canvas 0 0 925 1132 10;
#X declare -lib xlab;
#X obj 6 162 src/l.readsvg;
#X msg 159 113 reload;
#X msg 6 113 read resources/rect4.svg;
#X obj 6 84 t b b, f 26;
#X obj 44 52 bng 18 250 50 0 empty empty empty 0 -9 0 10 #fcfcfc #000000 #000000;
#X obj 245 81 key;
#X obj 245 103 sel 32;
#X msg 245 125 play;
#X obj 49 384 src/l.playchilds;
#X obj 6 267 l.attrfilter stroke #ff0000;
#X obj 49 406 print;
#X obj 4 6 declare -lib xlab;
#X connect 0 0 9 0;
#X connect 1 0 0 0;
#X connect 2 0 0 0;
#X connect 3 0 2 0;
#X connect 3 1 1 0;
#X connect 4 0 3 0;
#X connect 5 0 6 0;
#X connect 6 0 7 0;
#X connect 7 0 0 0;
#X connect 8 0 10 0;
#X connect 9 0 8 0;
