#N canvas 965 552 938 479 10;
#X obj 8 6 inlet;
#X obj 8 28 l.attrget rely;
#X obj 8 58 * 24;
#X obj 8 80 + 60;
#X obj 8 133 makenote 60 150;
#X obj 8 155 pack f f, f 15;
#X msg 384 165 tr_active 1;
#X obj 325 138 loadbang;
#X msg 325 164 model 11;
#X obj 8 220 outlet~;
#X obj 8 198 else/plaits~ -midi, f 34;
#X text 278 7 Esse é o subpatch chamado plaits (salvo como plaits.pd no mesma pasta que o patch principal)., f 29;
#X text 101 24 Obtemos a posição relativa vertical, f 18;
#X text 40 57 Essa posição e traduzida para duas oitavas \, ou seja \, teremos notas entre 60 (C4) e 84 (C6)., f 32;
#X text 107 129 Todas notas terão duração de 150ms e velocity de 60, f 19;
#X connect 0 0 1 0;
#X connect 1 0 2 0;
#X connect 2 0 3 0;
#X connect 3 0 4 0;
#X connect 4 0 5 0;
#X connect 4 1 5 1;
#X connect 5 0 10 0;
#X connect 6 0 10 0;
#X connect 7 0 6 0;
#X connect 7 0 8 0;
#X connect 8 0 10 0;
#X connect 10 0 9 0;
