#N canvas 0 0 925 1132 10;
#X declare -lib xlab;
#X obj 3 4 declare -lib xlab;
#X obj 102 142 l.readsvg;
#X msg 102 118 read test-path-child.svg \, play;
#X obj 6 51 key;
#X obj 6 73 sel 32;
#X obj 102 164 l.attrfilter fill #ffaaaa;
#X obj 102 256 l.playpath;
#X obj 102 184 l.playchilds;
#X obj 103 281 bng 18 250 50 0 empty empty empty 0 -9 0 10 #fcfcfc #000000 #000000;
#X obj 269 165 timer;
#X obj 6 333 timer;
#X obj 6 355 nbx 5 16 -1e+37 1e+37 0 0 empty empty empty 0 -9 0 10 #fcfcfc #000000 #000000 0 256;
#X msg 16 256 tempo 1 msec;
#X obj 102 216 l.attrfilter stroke #00ff00;
#X connect 1 0 5 0;
#X connect 2 0 1 0;
#X connect 3 0 4 0;
#X connect 4 0 2 0;
#X connect 4 0 10 0;
#X connect 5 0 7 0;
#X connect 6 0 8 0;
#X connect 7 0 13 0;
#X connect 8 0 10 1;
#X connect 10 0 11 0;
#X connect 12 0 10 0;
#X connect 13 0 6 0;
