#N canvas 965 30 938 1001 10;
#X declare -lib pdlua -path pd-upic;
#X obj 8 7 declare -lib pdlua -path pd-upic;
#X obj 8 27 key;
#X obj 8 49 sel 32;
#N canvas 491 552 464 479 ellipses 0;
#X obj 20 20 inlet;
#X obj 20 105 print ellipse;
#X obj 20 42 l.attrfilter name ellipse;
#X obj 121 83 l.attrget relx;
#X obj 20 83 l.attrget rely;
#X connect 0 0 2 0;
#X connect 2 0 3 0;
#X connect 2 0 4 0;
#X connect 4 0 1 0;
#X restore 8 134 pd ellipses;
#N canvas 965 552 938 479 reader 0;
#X obj 20 20 inlet;
#X msg 81 119 read ./score.svg;
#X obj 30 60 t b b b;
#X obj 30 95 t b b, f 9;
#X msg 69 162 reload;
#X msg 30 119 play 0;
#X obj 30 210 outlet;
#X obj 30 188 l.readsvg;
#X connect 0 0 2 0;
#X connect 1 0 7 0;
#X connect 2 0 3 0;
#X connect 2 2 4 0;
#X connect 3 0 5 0;
#X connect 3 1 1 0;
#X connect 4 0 7 0;
#X connect 5 0 7 0;
#X connect 7 0 6 0;
#X restore 8 78 pd reader;
#N canvas 965 552 938 479 paths 0;
#X obj 20 20 inlet;
#X msg 58 97 reload;
#X obj 20 201 print;
#X obj 20 42 l.attrfilter name path;
#X obj 20 157 l.playpath;
#X obj 20 179 l.attrget relx;
#X connect 0 0 3 0;
#X connect 1 0 4 0;
#X connect 3 0 4 0;
#X connect 4 0 5 0;
#X connect 5 0 2 0;
#X restore 81 134 pd paths;
#X obj 8 106 t a a a, f 25;
#N canvas 965 552 938 479 rects 0;
#X obj 20 20 inlet;
#X obj 20 155 print;
#X obj 20 60 l.attrfilter name rect;
#X obj 20 133 l.attrget fill;
#X connect 0 0 2 0;
#X connect 2 0 3 0;
#X connect 3 0 1 0;
#X restore 155 135 pd rects;
#X connect 1 0 2 0;
#X connect 2 0 4 0;
#X connect 4 0 6 0;
#X connect 6 0 3 0;
#X connect 6 1 5 0;
#X connect 6 2 7 0;
